<svg width="38" height="38" viewBox="0 0 38 38" fill="none" xmlns="http://www.w3.org/2000/svg">
<path d="M28.3493 13.2094C28.1379 14.1601 27.6636 15.0117 26.9779 15.6723C26.7897 15.8536 26.7841 16.1531 26.9654 16.3412C27.0582 16.4376 27.1821 16.486 27.3062 16.486C27.4243 16.486 27.5426 16.442 27.6343 16.3537C28.4543 15.5637 29.0209 14.5475 29.2729 13.4148C29.4581 12.5828 29.3584 11.7779 28.985 11.0871C28.8608 10.8573 28.5737 10.7716 28.3439 10.8959C28.1141 11.0201 28.0286 11.3071 28.1527 11.5369C28.4162 12.0246 28.4842 12.6029 28.3493 13.2094Z" fill="#2EAA76"/>
<path d="M25.5387 10.2525C25.9974 10.2525 26.4189 10.3167 26.7914 10.4435C26.842 10.4606 26.8932 10.4689 26.9438 10.4689C27.1407 10.4689 27.3246 10.3448 27.3915 10.1479C27.4757 9.90064 27.3433 9.63185 27.096 9.54774C26.6251 9.38767 26.1012 9.3064 25.5387 9.3064C25.2775 9.3064 25.0657 9.51823 25.0657 9.77944C25.0657 10.0407 25.2775 10.2525 25.5387 10.2525Z" fill="#2EAA76"/>
<path d="M37.3214 26.2955H29.068V22.4835C29.068 21.1172 27.9565 20.0057 26.5902 20.0057H25.7798C25.9255 19.7783 26.0275 19.5206 26.0739 19.2441C27.5789 18.64 28.8566 17.5772 29.7225 16.2083C30.5712 16.7248 31.5372 16.9965 32.5466 16.9965C35.5536 16.9965 38 14.5502 38 11.5432C38 8.5361 35.5537 6.08979 32.5466 6.08979C30.7785 6.08979 29.1597 6.92254 28.1346 8.33732C27.5453 8.07346 26.9007 7.93164 26.2376 7.93164H25.4138V7.58121H26.2777C26.479 7.58121 26.6583 7.45367 26.7246 7.26351C26.7908 7.07334 26.7292 6.86208 26.5712 6.7372C25.0749 5.55344 23.2097 4.88957 21.3036 4.8557C21.5213 4.56799 21.6457 4.23081 21.6457 3.86694C21.6457 2.78376 20.5481 1.9353 19.1468 1.9353C17.7456 1.9353 16.6479 2.78376 16.6479 3.86694C16.6479 4.2309 16.7723 4.56809 16.99 4.8557C15.0839 4.88957 13.2188 5.55344 11.7225 6.7372C11.5646 6.86217 11.503 7.07334 11.5691 7.26351C11.6352 7.45367 11.8145 7.58121 12.0159 7.58121H12.8799V7.93164H12.056C11.1312 7.93164 10.242 8.2061 9.4895 8.70592L8.1136 7.35074C7.21689 6.46756 5.89435 6.22716 4.74399 6.73824L3.42571 7.32415C3.29581 7.38186 3.19883 7.49492 3.16146 7.63201C3.124 7.7691 3.1503 7.91574 3.23289 8.03136L3.91635 8.98823C4.22222 9.41644 4.428 9.91739 4.51154 10.437L4.86982 12.6662C5.03681 13.7052 5.71175 14.5781 6.67535 15.0013L8.28049 15.7062C9.13708 17.317 10.5359 18.5683 12.2201 19.2443C12.2666 19.5207 12.3686 19.7784 12.5142 20.0057H11.2049C9.83861 20.0057 8.72704 21.1172 8.72704 22.4835V26.2955H0.473046C0.21183 26.2955 0 26.5073 0 26.7685V29.2284C0 30.9907 0.816099 32.6653 2.19484 33.7564V34.8261C2.19484 35.5089 2.75039 36.0645 3.43318 36.0645H8.10905C8.79185 36.0645 9.34739 35.5089 9.34739 34.8261V33.7564C10.1218 33.1435 10.7187 32.3465 11.0931 31.4533H26.7012C27.0757 32.3465 27.6725 33.1435 28.4469 33.7564V34.8261C28.4469 35.5089 29.0025 36.0645 29.6853 36.0645H34.3611C35.0439 36.0645 35.5995 35.5089 35.5995 34.8261V33.7564C36.9782 32.6652 37.7943 30.9907 37.7943 29.2284V26.7685C37.7944 26.5073 37.5827 26.2955 37.3214 26.2955ZM30.608 11.0099C31.0227 10.3402 31.748 9.9312 32.5466 9.9312C33.8049 9.9312 34.8287 10.955 34.8287 12.2133C34.8287 13.4716 33.8049 14.4953 32.5466 14.4953C31.8467 14.4953 31.1928 14.1758 30.7605 13.6332C30.78 13.5391 30.7989 13.4449 30.8151 13.3494C30.9499 12.5538 30.8733 11.7503 30.608 11.0099ZM32.5466 7.03588C35.0319 7.03588 37.0539 9.05787 37.0539 11.5432C37.0539 14.0284 35.0319 16.0504 32.5466 16.0504C31.6984 16.0504 30.8874 15.8189 30.1781 15.3783C30.2849 15.1521 30.3817 14.9199 30.467 14.6813C31.0422 15.1661 31.7744 15.4414 32.5466 15.4414C34.3266 15.4414 35.7748 13.9933 35.7748 12.2133C35.7748 10.4333 34.3266 8.98511 32.5466 8.98511C31.6089 8.98511 30.7428 9.38417 30.1399 10.0613C30.032 9.89402 29.9142 9.73215 29.784 9.57803C29.5388 9.28786 29.2613 9.03336 28.9603 8.8151C29.8101 7.69417 31.1189 7.03588 32.5466 7.03588ZM19.1468 2.8813C19.9885 2.8813 20.6997 3.33268 20.6997 3.86685C20.6997 4.40101 19.9886 4.85239 19.1468 4.85239C18.3051 4.85239 17.594 4.40101 17.594 3.86685C17.594 3.33268 18.3052 2.8813 19.1468 2.8813ZM17.1428 5.79848H21.1508C22.3713 5.79848 23.5771 6.08988 24.6601 6.63511H13.6336C14.7166 6.08988 15.9224 5.79848 17.1428 5.79848ZM13.8261 7.58121H24.4677V7.93164H13.8261V7.58121ZM7.44963 8.02473L8.7558 9.31114C8.67103 9.39695 8.58825 9.48503 8.50972 9.57793C8.34577 9.77207 8.19941 9.97756 8.07102 10.1919L7.82627 9.83518C7.13789 8.83194 6.16247 8.07175 5.04551 7.63958L5.12829 7.60278C5.92074 7.25055 6.83202 7.4163 7.44963 8.02473ZM7.05577 14.135C6.38764 13.8416 5.9197 13.2364 5.8039 12.516L5.44561 10.2868C5.34561 9.66469 5.10672 9.06458 4.75544 8.54139C5.67476 8.90848 6.47695 9.54085 7.04612 10.3706L7.62002 11.2071C7.40885 11.8919 7.35568 12.624 7.47858 13.3495C7.54187 13.7232 7.63203 14.0861 7.74481 14.4376L7.05577 14.135ZM8.41143 13.1915C8.2293 12.1162 8.52855 11.0217 9.23244 10.1886C9.93634 9.3556 10.9655 8.87783 12.0561 8.87783H13.3531H24.9407H26.2376C27.3283 8.87783 28.3574 9.3556 29.0613 10.1887C29.7651 11.0218 30.0645 12.1163 29.8823 13.1916C29.7535 13.9525 29.5016 14.6641 29.1514 15.3098C29.1463 15.3193 29.1403 15.3285 29.1359 15.3381C28.3397 16.7891 27.039 17.8992 25.4823 18.457C25.4677 18.4618 25.4528 18.4659 25.4389 18.4721C24.7293 18.721 23.9679 18.8567 23.1773 18.8567H15.1166C14.3262 18.8567 13.5652 18.721 12.8557 18.4723C12.8407 18.4657 12.8248 18.4613 12.8091 18.4563C10.5527 17.6465 8.83244 15.6777 8.41143 13.1915ZM15.1165 19.8026H23.1772C23.7674 19.8026 24.3435 19.7368 24.8981 19.6116C24.6959 19.8521 24.3933 20.0056 24.0552 20.0056H14.2388C13.9008 20.0056 13.5981 19.8522 13.3959 19.6117C13.9504 19.7368 14.5264 19.8026 15.1165 19.8026ZM8.10915 35.1185H3.43328C3.27206 35.1185 3.14103 34.9873 3.14103 34.8262V33.9944H8.40149V34.8262C8.4014 34.9873 8.27027 35.1185 8.10915 35.1185ZM8.71361 33.0483H2.82872C1.64809 32.1369 0.946093 30.7209 0.946093 29.2284V27.2416H10.5962V29.2284C10.5962 30.721 9.89424 32.1369 8.71361 33.0483ZM24.4669 30.5073H22.7289V28.6151C22.7289 28.3539 22.5171 28.1421 22.2559 28.1421H20.4598C20.807 27.4772 20.702 26.6356 20.1442 26.0778L19.2317 25.1654C19.0469 24.9807 18.7475 24.9807 18.5627 25.1654L17.6503 26.0778C17.3172 26.4109 17.1338 26.8538 17.1338 27.3247C17.1338 27.6142 17.2037 27.8929 17.3345 28.1421H15.5386C15.2774 28.1421 15.0656 28.3539 15.0656 28.6151V30.5073H13.3276V29.5488C13.3276 26.4777 15.8261 23.9792 18.8973 23.9792C21.9684 23.9792 24.4669 26.4777 24.4669 29.5488V30.5073ZM18.3193 27.9025C18.165 27.7481 18.0799 27.5429 18.0799 27.3246C18.0799 27.1064 18.165 26.9011 18.3194 26.7467L18.8973 26.1687L19.4752 26.7466C19.7939 27.0653 19.7939 27.5839 19.4752 27.9025C19.3208 28.0569 19.1156 28.142 18.8973 28.142C18.6789 28.142 18.4737 28.0569 18.3193 27.9025ZM21.7828 29.0881V30.5072H16.0117V29.0881H21.7828ZM25.413 30.5073V29.5488C25.413 25.956 22.49 23.0331 18.8973 23.0331C15.3045 23.0331 12.3815 25.956 12.3815 29.5488V30.5073H11.3971C11.4924 30.0912 11.5424 29.6625 11.5424 29.2284V26.7685C11.5424 26.5073 11.3306 26.2955 11.0694 26.2955H9.67323V22.4835C9.67323 21.6389 10.3604 20.9518 11.205 20.9518H26.5903C27.4349 20.9518 28.122 21.6389 28.122 22.4835V26.2955H26.7252C26.464 26.2955 26.2522 26.5073 26.2522 26.7685V29.2284C26.2522 29.6625 26.3022 30.0912 26.3975 30.5073H25.413ZM34.3612 35.1185H29.6854C29.5242 35.1185 29.3931 34.9873 29.3931 34.8262V33.9944H34.6536V34.8262C34.6535 34.9873 34.5224 35.1185 34.3612 35.1185ZM36.8483 29.2284C36.8483 30.7209 36.1463 32.1369 34.9657 33.0483H29.0809C27.9003 32.1369 27.1983 30.721 27.1983 29.2284V27.2416H36.8484V29.2284H36.8483Z" fill="#2EAA76"/>
<path d="M35.7285 30.4835C35.9898 30.4835 36.2016 30.2717 36.2016 30.0105V28.1183C36.2016 27.8571 35.9898 27.6453 35.7285 27.6453C35.4673 27.6453 35.2555 27.8571 35.2555 28.1183V30.0105C35.2555 30.2717 35.4673 30.4835 35.7285 30.4835Z" fill="#2EAA76"/>
<path d="M9.42715 27.6453C9.16593 27.6453 8.9541 27.8571 8.9541 28.1183V30.0105C8.9541 30.2717 9.16593 30.4835 9.42715 30.4835C9.68836 30.4835 9.90019 30.2717 9.90019 30.0105V28.1183C9.90019 27.857 9.68836 27.6453 9.42715 27.6453Z" fill="#2EAA76"/>
</svg>
